<svg width="185" height="100" viewBox="0 0 185 100" fill="none" xmlns="http://www.w3.org/2000/svg">
<g clip-path="url(#clip0_0_178)">
<circle cx="3.5" cy="1.5" r="1.5" fill="#D2D6DB"/>
<circle cx="12.5" cy="1.5" r="1.5" fill="#D2D6DB"/>
<circle cx="21.5" cy="1.5" r="1.5" fill="#D2D6DB"/>
<circle cx="30.5" cy="1.5" r="1.5" fill="#D2D6DB"/>
<circle cx="39.5" cy="1.5" r="1.5" fill="#D2D6DB"/>
<circle cx="48.5" cy="1.5" r="1.5" fill="#D2D6DB"/>
<circle cx="57.5" cy="1.5" r="1.5" fill="#D2D6DB"/>
<circle cx="66.5" cy="1.5" r="1.5" fill="#D2D6DB"/>
<circle cx="75.5" cy="1.5" r="1.5" fill="#D2D6DB"/>
<circle cx="84.5" cy="1.5" r="1.5" fill="#D2D6DB"/>
<circle cx="93.5" cy="1.5" r="1.5" fill="#D2D6DB"/>
<circle cx="102.5" cy="1.5" r="1.5" fill="#D2D6DB"/>
<circle cx="111.5" cy="1.5" r="1.5" fill="#D2D6DB"/>
<circle cx="120.5" cy="1.5" r="1.5" fill="#D2D6DB"/>
<circle cx="129.5" cy="1.5" r="1.5" fill="#D2D6DB"/>
<circle cx="138.5" cy="1.5" r="1.5" fill="#D2D6DB"/>
<circle cx="147.5" cy="1.5" r="1.5" fill="#D2D6DB"/>
<circle cx="156.5" cy="1.5" r="1.5" fill="#D2D6DB"/>
<circle cx="165.5" cy="1.5" r="1.5" fill="#D2D6DB"/>
<circle cx="174.5" cy="1.5" r="1.5" fill="#D2D6DB"/>
<circle cx="183.5" cy="1.5" r="1.5" fill="#D2D6DB"/>
<circle cx="3.5" cy="10.5" r="1.5" fill="#D2D6DB"/>
<circle cx="12.5" cy="10.5" r="1.5" fill="#D2D6DB"/>
<circle cx="21.5" cy="10.5" r="1.5" fill="#D2D6DB"/>
<circle cx="30.5" cy="10.5" r="1.5" fill="#D2D6DB"/>
<circle cx="39.5" cy="10.5" r="1.5" fill="#D2D6DB"/>
<circle cx="48.5" cy="10.5" r="1.5" fill="#D2D6DB"/>
<circle cx="57.5" cy="10.5" r="1.5" fill="#D2D6DB"/>
<circle cx="66.5" cy="10.5" r="1.5" fill="#D2D6DB"/>
<circle cx="75.5" cy="10.5" r="1.5" fill="#D2D6DB"/>
<circle cx="84.5" cy="10.5" r="1.5" fill="#D2D6DB"/>
<circle cx="93.5" cy="10.5" r="1.5" fill="#D2D6DB"/>
<circle cx="102.5" cy="10.5" r="1.5" fill="#D2D6DB"/>
<circle cx="111.5" cy="10.5" r="1.5" fill="#D2D6DB"/>
<circle cx="120.5" cy="10.5" r="1.5" fill="#D2D6DB"/>
<circle cx="129.5" cy="10.5" r="1.5" fill="#D2D6DB"/>
<circle cx="138.5" cy="10.5" r="1.5" fill="#D2D6DB"/>
<circle cx="147.5" cy="10.5" r="1.5" fill="#D2D6DB"/>
<circle cx="156.5" cy="10.5" r="1.5" fill="#D2D6DB"/>
<circle cx="165.5" cy="10.5" r="1.5" fill="#D2D6DB"/>
<circle cx="174.5" cy="10.5" r="1.5" fill="#D2D6DB"/>
<circle cx="183.5" cy="10.5" r="1.5" fill="#D2D6DB"/>
<circle cx="3.5" cy="19.5" r="1.5" fill="#D2D6DB"/>
<circle cx="12.5" cy="19.5" r="1.5" fill="#D2D6DB"/>
<circle cx="21.5" cy="19.5" r="1.5" fill="#D2D6DB"/>
<circle cx="30.5" cy="19.5" r="1.5" fill="#D2D6DB"/>
<circle cx="39.5" cy="19.5" r="1.5" fill="#D2D6DB"/>
<circle cx="48.5" cy="19.5" r="1.5" fill="#D2D6DB"/>
<circle cx="57.5" cy="19.5" r="1.5" fill="#D2D6DB"/>
<circle cx="66.5" cy="19.5" r="1.5" fill="#D2D6DB"/>
<circle cx="75.5" cy="19.5" r="1.5" fill="#D2D6DB"/>
<circle cx="84.5" cy="19.5" r="1.5" fill="#D2D6DB"/>
<circle cx="93.5" cy="19.5" r="1.5" fill="#D2D6DB"/>
<circle cx="102.5" cy="19.5" r="1.5" fill="#D2D6DB"/>
<circle cx="111.5" cy="19.5" r="1.5" fill="#D2D6DB"/>
<circle cx="120.5" cy="19.5" r="1.5" fill="#D2D6DB"/>
<circle cx="129.5" cy="19.5" r="1.5" fill="#D2D6DB"/>
<circle cx="138.5" cy="19.5" r="1.5" fill="#D2D6DB"/>
<circle cx="147.5" cy="19.5" r="1.5" fill="#D2D6DB"/>
<circle cx="156.5" cy="19.5" r="1.5" fill="#D2D6DB"/>
<circle cx="165.5" cy="19.5" r="1.5" fill="#D2D6DB"/>
<circle cx="174.5" cy="19.5" r="1.5" fill="#D2D6DB"/>
<circle cx="183.5" cy="19.5" r="1.5" fill="#D2D6DB"/>
<circle cx="3.5" cy="28.5" r="1.5" fill="#D2D6DB"/>
<circle cx="12.5" cy="28.5" r="1.5" fill="#D2D6DB"/>
<circle cx="21.5" cy="28.5" r="1.5" fill="#D2D6DB"/>
<circle cx="30.5" cy="28.5" r="1.5" fill="#D2D6DB"/>
<circle cx="39.5" cy="28.5" r="1.5" fill="#D2D6DB"/>
<circle cx="48.5" cy="28.5" r="1.5" fill="#D2D6DB"/>
<circle cx="57.5" cy="28.5" r="1.5" fill="#D2D6DB"/>
<circle cx="66.5" cy="28.5" r="1.5" fill="#D2D6DB"/>
<circle cx="75.5" cy="28.5" r="1.5" fill="#D2D6DB"/>
<circle cx="84.5" cy="28.5" r="1.5" fill="#D2D6DB"/>
<circle cx="93.5" cy="28.5" r="1.5" fill="#D2D6DB"/>
<circle cx="102.5" cy="28.5" r="1.5" fill="#D2D6DB"/>
<circle cx="111.5" cy="28.5" r="1.5" fill="#D2D6DB"/>
<circle cx="120.5" cy="28.5" r="1.5" fill="#D2D6DB"/>
<circle cx="129.5" cy="28.5" r="1.5" fill="#D2D6DB"/>
<circle cx="138.5" cy="28.5" r="1.5" fill="#D2D6DB"/>
<circle cx="147.5" cy="28.5" r="1.5" fill="#D2D6DB"/>
<circle cx="156.5" cy="28.5" r="1.5" fill="#D2D6DB"/>
<circle cx="165.5" cy="28.5" r="1.5" fill="#D2D6DB"/>
<circle cx="174.5" cy="28.5" r="1.5" fill="#D2D6DB"/>
<circle cx="183.5" cy="28.5" r="1.5" fill="#D2D6DB"/>
<circle cx="3.5" cy="37.5" r="1.5" fill="#D2D6DB"/>
<circle cx="12.5" cy="37.5" r="1.5" fill="#D2D6DB"/>
<circle cx="21.5" cy="37.5" r="1.5" fill="#D2D6DB"/>
<circle cx="30.5" cy="37.5" r="1.5" fill="#D2D6DB"/>
<circle cx="39.5" cy="37.5" r="1.5" fill="#D2D6DB"/>
<circle cx="48.5" cy="37.5" r="1.5" fill="#D2D6DB"/>
<circle cx="57.5" cy="37.5" r="1.5" fill="#D2D6DB"/>
<circle cx="66.5" cy="37.5" r="1.5" fill="#D2D6DB"/>
<circle cx="75.5" cy="37.5" r="1.5" fill="#D2D6DB"/>
<circle cx="84.5" cy="37.5" r="1.5" fill="#D2D6DB"/>
<circle cx="93.5" cy="37.5" r="1.5" fill="#D2D6DB"/>
<circle cx="102.5" cy="37.5" r="1.5" fill="#D2D6DB"/>
<circle cx="111.5" cy="37.5" r="1.5" fill="#D2D6DB"/>
<circle cx="120.5" cy="37.5" r="1.5" fill="#D2D6DB"/>
<circle cx="129.5" cy="37.5" r="1.5" fill="#D2D6DB"/>
<circle cx="138.5" cy="37.5" r="1.5" fill="#D2D6DB"/>
<circle cx="147.5" cy="37.5" r="1.5" fill="#D2D6DB"/>
<circle cx="156.5" cy="37.5" r="1.5" fill="#D2D6DB"/>
<circle cx="165.5" cy="37.5" r="1.5" fill="#D2D6DB"/>
<circle cx="174.5" cy="37.5" r="1.5" fill="#D2D6DB"/>
<circle cx="183.5" cy="37.5" r="1.5" fill="#D2D6DB"/>
<circle cx="3.5" cy="46.5" r="1.5" fill="#D2D6DB"/>
<circle cx="12.5" cy="46.5" r="1.5" fill="#D2D6DB"/>
<circle cx="21.5" cy="46.5" r="1.5" fill="#D2D6DB"/>
<circle cx="30.5" cy="46.5" r="1.5" fill="#D2D6DB"/>
<circle cx="39.5" cy="46.5" r="1.5" fill="#D2D6DB"/>
<circle cx="48.5" cy="46.5" r="1.5" fill="#D2D6DB"/>
<circle cx="57.5" cy="46.5" r="1.5" fill="#D2D6DB"/>
<circle cx="66.5" cy="46.5" r="1.5" fill="#D2D6DB"/>
<circle cx="75.5" cy="46.5" r="1.5" fill="#D2D6DB"/>
<circle cx="84.5" cy="46.5" r="1.5" fill="#D2D6DB"/>
<circle cx="93.5" cy="46.5" r="1.5" fill="#D2D6DB"/>
<circle cx="102.5" cy="46.5" r="1.5" fill="#D2D6DB"/>
<circle cx="111.5" cy="46.5" r="1.5" fill="#D2D6DB"/>
<circle cx="120.5" cy="46.5" r="1.5" fill="#D2D6DB"/>
<circle cx="129.5" cy="46.5" r="1.5" fill="#D2D6DB"/>
<circle cx="138.5" cy="46.5" r="1.5" fill="#D2D6DB"/>
<circle cx="147.5" cy="46.5" r="1.5" fill="#D2D6DB"/>
<circle cx="156.5" cy="46.5" r="1.5" fill="#D2D6DB"/>
<circle cx="165.5" cy="46.5" r="1.5" fill="#D2D6DB"/>
<circle cx="174.5" cy="46.5" r="1.5" fill="#D2D6DB"/>
<circle cx="183.5" cy="46.5" r="1.5" fill="#D2D6DB"/>
<circle cx="3.5" cy="55.5" r="1.5" fill="#D2D6DB"/>
<circle cx="12.5" cy="55.5" r="1.5" fill="#D2D6DB"/>
<circle cx="21.5" cy="55.5" r="1.5" fill="#D2D6DB"/>
<circle cx="30.5" cy="55.5" r="1.5" fill="#D2D6DB"/>
<circle cx="39.5" cy="55.5" r="1.5" fill="#D2D6DB"/>
<circle cx="48.5" cy="55.5" r="1.5" fill="#D2D6DB"/>
<circle cx="57.5" cy="55.5" r="1.5" fill="#D2D6DB"/>
<circle cx="66.5" cy="55.5" r="1.5" fill="#D2D6DB"/>
<circle cx="75.5" cy="55.5" r="1.5" fill="#D2D6DB"/>
<circle cx="84.5" cy="55.5" r="1.5" fill="#D2D6DB"/>
<circle cx="93.5" cy="55.5" r="1.5" fill="#D2D6DB"/>
<circle cx="102.5" cy="55.5" r="1.5" fill="#D2D6DB"/>
<circle cx="111.5" cy="55.5" r="1.5" fill="#D2D6DB"/>
<circle cx="120.5" cy="55.5" r="1.5" fill="#D2D6DB"/>
<circle cx="129.5" cy="55.5" r="1.5" fill="#D2D6DB"/>
<circle cx="138.5" cy="55.5" r="1.5" fill="#D2D6DB"/>
<circle cx="147.5" cy="55.5" r="1.5" fill="#D2D6DB"/>
<circle cx="156.5" cy="55.5" r="1.5" fill="#D2D6DB"/>
<circle cx="165.5" cy="55.5" r="1.5" fill="#D2D6DB"/>
<circle cx="174.5" cy="55.5" r="1.5" fill="#D2D6DB"/>
<circle cx="183.5" cy="55.5" r="1.5" fill="#D2D6DB"/>
<circle cx="3.5" cy="64.5" r="1.5" fill="#D2D6DB"/>
<circle cx="12.5" cy="64.5" r="1.5" fill="#D2D6DB"/>
<circle cx="21.5" cy="64.5" r="1.5" fill="#D2D6DB"/>
<circle cx="30.5" cy="64.5" r="1.5" fill="#D2D6DB"/>
<circle cx="39.5" cy="64.5" r="1.5" fill="#D2D6DB"/>
<circle cx="48.5" cy="64.5" r="1.5" fill="#D2D6DB"/>
<circle cx="57.5" cy="64.5" r="1.5" fill="#D2D6DB"/>
<circle cx="66.5" cy="64.5" r="1.5" fill="#D2D6DB"/>
<circle cx="75.5" cy="64.5" r="1.5" fill="#D2D6DB"/>
<circle cx="84.5" cy="64.5" r="1.5" fill="#D2D6DB"/>
<circle cx="93.5" cy="64.5" r="1.5" fill="#D2D6DB"/>
<circle cx="102.5" cy="64.5" r="1.5" fill="#D2D6DB"/>
<circle cx="111.5" cy="64.5" r="1.5" fill="#D2D6DB"/>
<circle cx="120.5" cy="64.5" r="1.5" fill="#D2D6DB"/>
<circle cx="129.5" cy="64.5" r="1.5" fill="#D2D6DB"/>
<circle cx="138.5" cy="64.5" r="1.5" fill="#D2D6DB"/>
<circle cx="147.5" cy="64.5" r="1.5" fill="#D2D6DB"/>
<circle cx="156.5" cy="64.5" r="1.5" fill="#D2D6DB"/>
<circle cx="165.5" cy="64.5" r="1.5" fill="#D2D6DB"/>
<circle cx="174.5" cy="64.5" r="1.5" fill="#D2D6DB"/>
<circle cx="183.5" cy="64.5" r="1.5" fill="#D2D6DB"/>
<circle cx="3.5" cy="73.5" r="1.5" fill="#D2D6DB"/>
<circle cx="12.5" cy="73.5" r="1.5" fill="#D2D6DB"/>
<circle cx="21.5" cy="73.5" r="1.5" fill="#D2D6DB"/>
<circle cx="30.5" cy="73.5" r="1.5" fill="#D2D6DB"/>
<circle cx="39.5" cy="73.5" r="1.5" fill="#D2D6DB"/>
<circle cx="48.5" cy="73.5" r="1.5" fill="#D2D6DB"/>
<circle cx="57.5" cy="73.5" r="1.5" fill="#D2D6DB"/>
<circle cx="66.5" cy="73.5" r="1.5" fill="#D2D6DB"/>
<circle cx="75.5" cy="73.5" r="1.5" fill="#D2D6DB"/>
<circle cx="84.5" cy="73.5" r="1.5" fill="#D2D6DB"/>
<circle cx="93.5" cy="73.5" r="1.5" fill="#D2D6DB"/>
<circle cx="102.5" cy="73.5" r="1.5" fill="#D2D6DB"/>
<circle cx="111.5" cy="73.5" r="1.5" fill="#D2D6DB"/>
<circle cx="120.5" cy="73.5" r="1.5" fill="#D2D6DB"/>
<circle cx="129.5" cy="73.5" r="1.5" fill="#D2D6DB"/>
<circle cx="138.5" cy="73.5" r="1.5" fill="#D2D6DB"/>
<circle cx="147.5" cy="73.5" r="1.5" fill="#D2D6DB"/>
<circle cx="156.5" cy="73.5" r="1.5" fill="#D2D6DB"/>
<circle cx="165.5" cy="73.5" r="1.5" fill="#D2D6DB"/>
<circle cx="174.5" cy="73.5" r="1.5" fill="#D2D6DB"/>
<circle cx="183.5" cy="73.5" r="1.5" fill="#D2D6DB"/>
<circle cx="3.5" cy="82.5" r="1.5" fill="#D2D6DB"/>
<circle cx="12.5" cy="82.5" r="1.5" fill="#D2D6DB"/>
<circle cx="21.5" cy="82.5" r="1.5" fill="#D2D6DB"/>
<circle cx="30.5" cy="82.5" r="1.5" fill="#D2D6DB"/>
<circle cx="39.5" cy="82.5" r="1.5" fill="#D2D6DB"/>
<circle cx="48.5" cy="82.5" r="1.5" fill="#D2D6DB"/>
<circle cx="57.5" cy="82.5" r="1.5" fill="#D2D6DB"/>
<circle cx="66.5" cy="82.5" r="1.5" fill="#D2D6DB"/>
<circle cx="75.5" cy="82.5" r="1.5" fill="#D2D6DB"/>
<circle cx="84.5" cy="82.5" r="1.5" fill="#D2D6DB"/>
<circle cx="93.5" cy="82.5" r="1.5" fill="#D2D6DB"/>
<circle cx="102.5" cy="82.5" r="1.5" fill="#D2D6DB"/>
<circle cx="111.5" cy="82.5" r="1.5" fill="#D2D6DB"/>
<circle cx="120.5" cy="82.5" r="1.5" fill="#D2D6DB"/>
<circle cx="129.5" cy="82.5" r="1.5" fill="#D2D6DB"/>
<circle cx="138.5" cy="82.5" r="1.5" fill="#D2D6DB"/>
<circle cx="147.5" cy="82.5" r="1.5" fill="#D2D6DB"/>
<circle cx="156.5" cy="82.5" r="1.5" fill="#D2D6DB"/>
<circle cx="165.5" cy="82.5" r="1.5" fill="#D2D6DB"/>
<circle cx="174.5" cy="82.5" r="1.5" fill="#D2D6DB"/>
<circle cx="183.5" cy="82.5" r="1.5" fill="#D2D6DB"/>
<circle cx="3.5" cy="91.5" r="1.5" fill="#D2D6DB"/>
<circle cx="12.5" cy="91.5" r="1.5" fill="#D2D6DB"/>
<circle cx="21.5" cy="91.5" r="1.5" fill="#D2D6DB"/>
<circle cx="30.5" cy="91.5" r="1.5" fill="#D2D6DB"/>
<circle cx="39.5" cy="91.5" r="1.5" fill="#D2D6DB"/>
<circle cx="48.5" cy="91.5" r="1.5" fill="#D2D6DB"/>
<circle cx="57.5" cy="91.5" r="1.5" fill="#D2D6DB"/>
<circle cx="66.5" cy="91.5" r="1.5" fill="#D2D6DB"/>
<circle cx="75.5" cy="91.5" r="1.5" fill="#D2D6DB"/>
<circle cx="84.5" cy="91.5" r="1.5" fill="#D2D6DB"/>
<circle cx="93.5" cy="91.5" r="1.5" fill="#D2D6DB"/>
<circle cx="102.5" cy="91.5" r="1.5" fill="#D2D6DB"/>
<circle cx="111.5" cy="91.5" r="1.5" fill="#D2D6DB"/>
<circle cx="120.5" cy="91.5" r="1.5" fill="#D2D6DB"/>
<circle cx="129.5" cy="91.5" r="1.5" fill="#D2D6DB"/>
<circle cx="138.5" cy="91.5" r="1.5" fill="#D2D6DB"/>
<circle cx="147.5" cy="91.5" r="1.5" fill="#D2D6DB"/>
<circle cx="156.5" cy="91.5" r="1.5" fill="#D2D6DB"/>
<circle cx="165.5" cy="91.5" r="1.5" fill="#D2D6DB"/>
<circle cx="174.5" cy="91.5" r="1.5" fill="#D2D6DB"/>
<circle cx="183.5" cy="91.5" r="1.5" fill="#D2D6DB"/>
</g>
<defs>
<clipPath id="clip0_0_178">
<rect width="185" height="100" fill="white"/>
</clipPath>
</defs>
</svg>
