<svg width="42" height="41" viewBox="0 0 42 41" fill="none" xmlns="http://www.w3.org/2000/svg">
<path d="M30.3574 0H11.7858C5.74144 0 0.824158 4.91728 0.824158 10.9616V29.5336C0.824158 35.5776 5.74144 40.4949 11.7858 40.4949H30.3578C36.4018 40.4949 41.3191 35.5776 41.3191 29.5336V10.9616C41.3191 4.91728 36.4018 0 30.3574 0ZM38.945 29.5336C38.945 34.2686 35.0927 38.1209 30.3574 38.1209H11.7858C7.05049 38.1209 3.19817 34.2686 3.19817 29.5336V10.9616C3.19817 6.22633 7.05049 2.37401 11.7858 2.37401H30.3578C35.0927 2.37401 38.945 6.22633 38.945 10.9616V29.5336Z" fill="black"/>
<path d="M21.0716 9.17504C14.9661 9.17504 9.99908 14.142 9.99908 20.2476C9.99908 26.3531 14.966 31.3201 21.0716 31.3201C27.1772 31.3201 32.1441 26.3531 32.1441 20.2476C32.1441 14.142 27.1772 9.17504 21.0716 9.17504ZM21.0716 28.9461C16.2755 28.9461 12.3731 25.0441 12.3731 20.2476C12.3731 15.4514 16.2755 11.5491 21.0716 11.5491C25.8681 11.5491 29.7701 15.4514 29.7701 20.2476C29.7701 25.0441 25.8681 28.9461 21.0716 28.9461ZM32.4089 5.24268C30.6046 5.24268 29.1372 6.71054 29.1372 8.51446C29.1372 10.3188 30.6046 11.7866 32.4089 11.7866C34.2133 11.7866 35.681 10.3188 35.681 8.51454C35.681 6.7103 34.2132 5.24268 32.4089 5.24268ZM32.4089 9.41231C31.914 9.41231 31.5111 9.00942 31.5111 8.51446C31.5111 8.01927 31.914 7.61669 32.4089 7.61669C32.9041 7.61669 33.307 8.01927 33.307 8.51446C33.307 9.00942 32.9041 9.41231 32.4089 9.41231Z" fill="black"/>
</svg>
